<svg width="900" height="1200" viewBox="0 0 900 1200" fill="none" xmlns="http://www.w3.org/2000/svg">
  <rect width="900" height="1200" rx="44" fill="#050608"/>
  <circle cx="738" cy="160" r="170" fill="#57D8FF" fill-opacity="0.14"/>
  <circle cx="164" cy="1010" r="210" fill="#7C8CFF" fill-opacity="0.18"/>
  <rect x="60" y="60" width="780" height="1080" rx="32" fill="url(#paint0_linear)" stroke="rgba(255,255,255,0.14)"/>
  <text x="110" y="146" fill="#57D8FF" font-family="Space Grotesk, sans-serif" font-size="18" letter-spacing="4">CAMPAIGN IMAGE PLACEHOLDER</text>
  <text x="110" y="296" fill="#F5F7FB" font-family="Space Grotesk, sans-serif" font-size="92" font-weight="700">THE GAP</text>
  <text x="110" y="388" fill="#F5F7FB" font-family="Space Grotesk, sans-serif" font-size="92" font-weight="700">HAS WEIGHT</text>
  <text x="110" y="470" fill="#C4CFDB" font-family="Source Serif 4, serif" font-size="36">A public service campaign about gender pay inequity.</text>
  <path d="M110 596C221.333 540.667 318 513 400 513C482 513 593 551.333 733 628" stroke="#57D8FF" stroke-width="5" stroke-linecap="round"/>
  <path d="M110 670C204.667 707.333 308.667 726 422 726C535.333 726 639 694.667 733 632" stroke="#7C8CFF" stroke-width="5" stroke-linecap="round"/>
  <path d="M110 748C206.667 790.667 309 812 417 812C525 812 630.333 786.667 733 736" stroke="#F8BC77" stroke-width="5" stroke-linecap="round"/>
  <rect x="110" y="922" width="318" height="68" rx="34" fill="#0E141B" stroke="rgba(255,255,255,0.12)"/>
  <text x="152" y="965" fill="#F5F7FB" font-family="Space Grotesk, sans-serif" font-size="24">Replace with final image</text>
  <defs>
    <linearGradient id="paint0_linear" x1="60" y1="60" x2="840" y2="1140" gradientUnits="userSpaceOnUse">
      <stop stop-color="rgba(255,255,255,0.08)"/>
      <stop offset="1" stop-color="rgba(255,255,255,0.03)"/>
    </linearGradient>
  </defs>
</svg>