<svg width="1200" height="675" viewBox="0 0 1200 675" fill="none" xmlns="http://www.w3.org/2000/svg">
  <rect width="1200" height="675" rx="48" fill="#050608"/>
  <circle cx="1060" cy="120" r="180" fill="url(#paint0_radial)" fill-opacity="0.6"/>
  <circle cx="160" cy="120" r="180" fill="url(#paint1_radial)" fill-opacity="0.45"/>
  <rect x="72" y="72" width="1056" height="531" rx="32" fill="url(#paint2_linear)" stroke="rgba(255,255,255,0.14)"/>
  <rect x="120" y="120" width="420" height="420" rx="28" fill="#0E141B" stroke="rgba(255,255,255,0.08)"/>
  <circle cx="330" cy="330" r="114" stroke="#57D8FF" stroke-width="3"/>
  <circle cx="330" cy="330" r="72" stroke="#7C8CFF" stroke-width="3"/>
  <circle cx="330" cy="330" r="10" fill="#F5F7FB"/>
  <path d="M254 330C267.333 312.667 280.667 304 294 304C307.333 304 320.667 312.667 334 330C347.333 347.333 360.667 356 374 356C387.333 356 400.667 347.333 414 330" stroke="#57D8FF" stroke-width="4" stroke-linecap="round"/>
  <path d="M248 374C262.667 389.333 276.333 397 289 397C301.667 397 315.667 389.333 331 374C346.333 358.667 360.667 351 374 351C387.333 351 400.333 358.667 413 374" stroke="#7C8CFF" stroke-width="4" stroke-linecap="round"/>
  <text x="594" y="220" fill="#57D8FF" font-family="Space Grotesk, sans-serif" font-size="18" letter-spacing="4">PODCAST PLACEHOLDER</text>
  <text x="594" y="292" fill="#F5F7FB" font-family="Space Grotesk, sans-serif" font-size="54" font-weight="700">Five-minute audio entry point</text>
  <text x="594" y="342" fill="#C4CFDB" font-family="Space Grotesk, sans-serif" font-size="24">Replace with cover art, embed, or linked audio file.</text>
  <text x="594" y="386" fill="#C4CFDB" font-family="Space Grotesk, sans-serif" font-size="24">Needs one interviewee, one music layer, and a concise emotional arc.</text>
  <rect x="594" y="432" width="274" height="56" rx="28" fill="#0E141B" stroke="rgba(255,255,255,0.12)"/>
  <text x="636" y="467" fill="#F5F7FB" font-family="Space Grotesk, sans-serif" font-size="20">Drop final audio here</text>
  <defs>
    <radialGradient id="paint0_radial" cx="0" cy="0" r="1" gradientUnits="userSpaceOnUse" gradientTransform="translate(1060 120) rotate(90) scale(180)">
      <stop stop-color="#57D8FF"/>
      <stop offset="1" stop-color="#57D8FF" stop-opacity="0"/>
    </radialGradient>
    <radialGradient id="paint1_radial" cx="0" cy="0" r="1" gradientUnits="userSpaceOnUse" gradientTransform="translate(160 120) rotate(90) scale(180)">
      <stop stop-color="#7C8CFF"/>
      <stop offset="1" stop-color="#7C8CFF" stop-opacity="0"/>
    </radialGradient>
    <linearGradient id="paint2_linear" x1="72" y1="72" x2="1128" y2="603" gradientUnits="userSpaceOnUse">
      <stop stop-color="rgba(255,255,255,0.08)"/>
      <stop offset="1" stop-color="rgba(255,255,255,0.03)"/>
    </linearGradient>
  </defs>
</svg>